<svg width="45" height="45" viewBox="0 0 45 45" fill="none" xmlns="http://www.w3.org/2000/svg">
<rect width="45" height="45" rx="1" fill="#D4FC80" fill-opacity="0.5"/>
<path d="M12.13 32H9.58001C9.16001 32 8.95001 31.79 8.95001 31.37V13.34C8.95001 12.92 9.16001 12.71 9.58001 12.71H19.15C19.55 12.71 19.75 12.92 19.75 13.34V15.38C19.75 15.8 19.55 16.01 19.15 16.01H13.12C12.88 16.01 12.76 16.12 12.76 16.34V20.99C12.76 21.23 12.88 21.35 13.12 21.35H18.25C18.67 21.35 18.88 21.56 18.88 21.98V23.99C18.88 24.43 18.67 24.65 18.25 24.65H13.12C12.88 24.65 12.76 24.76 12.76 24.98V31.37C12.76 31.79 12.55 32 12.13 32Z" fill="#668C16"/>
<path d="M25.3359 32H22.7859C22.3659 32 22.1559 31.79 22.1559 31.37V17.33C22.1559 16.91 22.3659 16.7 22.7859 16.7H25.3359C25.7559 16.7 25.9659 16.91 25.9659 17.33V18.32H26.0859C26.5259 17.24 27.5059 16.7 29.0259 16.7H29.9859C33.1259 16.7 34.6959 18.33 34.6959 21.59V31.37C34.6959 31.79 34.4759 32 34.0359 32H31.5159C31.0959 32 30.8859 31.79 30.8859 31.37V21.77C30.8859 21.13 30.7459 20.68 30.4659 20.42C30.2059 20.14 29.7559 20 29.1159 20H28.0359C26.6559 20 25.9659 20.76 25.9659 22.28V31.37C25.9659 31.79 25.7559 32 25.3359 32Z" fill="#668C16"/>
</svg>
