<svg width="12" height="8" viewBox="0 0 12 8" fill="none" xmlns="http://www.w3.org/2000/svg">
<path d="M2.052 8H1.032C0.863999 8 0.779999 7.916 0.779999 7.748V0.535996C0.779999 0.367996 0.863999 0.283997 1.032 0.283997H4.86C5.02 0.283997 5.1 0.367996 5.1 0.535996V1.352C5.1 1.52 5.02 1.604 4.86 1.604H2.448C2.352 1.604 2.304 1.648 2.304 1.736V3.596C2.304 3.692 2.352 3.74 2.448 3.74H4.5C4.668 3.74 4.752 3.824 4.752 3.992V4.796C4.752 4.972 4.668 5.06 4.5 5.06H2.448C2.352 5.06 2.304 5.104 2.304 5.192V7.748C2.304 7.916 2.22 8 2.052 8Z" fill="black"/>
<path d="M7.33434 8H6.31434C6.14634 8 6.06234 7.916 6.06234 7.748V2.132C6.06234 1.964 6.14634 1.88 6.31434 1.88H7.33434C7.50234 1.88 7.58634 1.964 7.58634 2.132V2.528H7.63434C7.81034 2.096 8.20234 1.88 8.81034 1.88H9.19434C10.4503 1.88 11.0783 2.532 11.0783 3.836V7.748C11.0783 7.916 10.9903 8 10.8143 8H9.80634C9.63834 8 9.55434 7.916 9.55434 7.748V3.908C9.55434 3.652 9.49834 3.472 9.38634 3.368C9.28234 3.256 9.10234 3.2 8.84634 3.2H8.41434C7.86234 3.2 7.58634 3.504 7.58634 4.112V7.748C7.58634 7.916 7.50234 8 7.33434 8Z" fill="black"/>
</svg>
