<svg width="150" height="54" viewBox="0 0 150 54" fill="none" xmlns="http://www.w3.org/2000/svg">
<path d="M26.2633 15.3203H34.1637C34.911 15.3203 35.2847 15.694 35.2847 16.4413V48.5231C35.2847 49.2705 34.911 49.6441 34.1637 49.6441H29.7865C29.0391 49.6441 28.6655 49.2705 28.6655 48.5231V23.2206H28.452L23.0071 41.1032C22.7936 41.8149 22.3488 42.1708 21.6726 42.1708H17.1886C16.5124 42.1708 16.0676 41.8149 15.8541 41.1032L10.3025 23.1673H10.089V48.5231C10.089 48.9502 10.0178 49.2527 9.87544 49.4306C9.73308 49.573 9.43062 49.6441 8.96797 49.6441H4.59075C3.84342 49.6441 3.46975 49.2705 3.46975 48.5231V16.4413C3.46975 15.694 3.84342 15.3203 4.59075 15.3203H12.5445C13.0427 15.3203 13.3808 15.5694 13.5587 16.0676L19.2171 34.911H19.5374L25.2491 16.0676C25.3559 15.5694 25.6939 15.3203 26.2633 15.3203Z" fill="#20257F"/>
<path d="M70.9431 49.6441H66.5125C65.7651 49.6441 65.3915 49.2705 65.3915 48.5231V16.4413C65.3915 15.694 65.7651 15.3203 66.5125 15.3203H70.516C71.2633 15.3203 71.7614 15.5694 72.0107 16.0676L82.7936 36.2989H83.0071V16.4413C83.0071 15.694 83.3808 15.3203 84.1281 15.3203H88.5587C89.306 15.3203 89.6797 15.694 89.6797 16.4413V48.5231C89.6797 49.2705 89.306 49.6441 88.5587 49.6441H84.6619C83.8788 49.6441 83.3098 49.2882 82.9537 48.5765L72.2776 28.7189H72.0641V48.5231C72.0641 49.2705 71.6904 49.6441 70.9431 49.6441ZM104.571 49.6441H100.087C99.3037 49.6441 98.9125 49.2705 98.9125 48.5231V21.7794C98.9125 21.3879 98.7165 21.1922 98.3253 21.1922H92.2399C91.4925 21.1922 91.1189 20.8185 91.1189 20.0712V16.4413C91.1189 15.694 91.4925 15.3203 92.2399 15.3203H112.418C113.165 15.3203 113.539 15.694 113.539 16.4413V20.0712C113.539 20.8185 113.165 21.1922 112.418 21.1922H106.332C105.905 21.1922 105.692 21.3879 105.692 21.7794V48.5231C105.692 49.2705 105.318 49.6441 104.571 49.6441Z" fill="#20257F"/>
<path d="M119.517 27.2242H118.441C118.248 27.2242 118.151 27.1274 118.151 26.9338V16.531C118.151 16.3373 118.248 16.2406 118.441 16.2406H122.507C123.338 16.2406 123.987 16.474 124.454 16.9409C124.921 17.3964 125.154 18.0455 125.154 18.8883V20.6648C125.154 21.4961 124.921 22.1452 124.454 22.6121C123.987 23.079 123.338 23.3125 122.507 23.3125H120.013C119.876 23.3125 119.808 23.3694 119.808 23.4833V26.9338C119.808 27.1274 119.711 27.2242 119.517 27.2242ZM119.996 21.8434H122.268C123.076 21.8434 123.48 21.4221 123.48 20.5794V18.9566C123.48 18.1139 123.076 17.6925 122.268 17.6925H119.996C119.87 17.6925 119.808 17.7495 119.808 17.8633V21.6726C119.808 21.7865 119.87 21.8434 119.996 21.8434ZM127.688 27.2242H126.612C126.418 27.2242 126.321 27.1274 126.321 26.9338V16.531C126.321 16.3373 126.418 16.2406 126.612 16.2406H130.609C131.441 16.2406 132.09 16.4797 132.556 16.958C133.035 17.4249 133.274 18.074 133.274 18.9053V20.3402C133.274 21.6498 132.733 22.4754 131.651 22.8171V22.8854L133.547 26.8826C133.672 27.1103 133.598 27.2242 133.325 27.2242H132.266C131.993 27.2242 131.816 27.1274 131.736 26.9338L129.909 23.005H128.183C128.047 23.005 127.978 23.0619 127.978 23.1758V26.9338C127.978 27.1274 127.882 27.2242 127.688 27.2242ZM128.166 21.6384H130.336C131.178 21.6384 131.6 21.2228 131.6 20.3915V18.9566C131.6 18.1139 131.178 17.6925 130.336 17.6925H128.166C128.041 17.6925 127.978 17.7495 127.978 17.8633V21.4676C127.978 21.5815 128.041 21.6384 128.166 21.6384ZM137.442 25.7722H138.928C139.759 25.7722 140.175 25.3509 140.175 24.5082V18.9566C140.175 18.1139 139.759 17.6925 138.928 17.6925H137.442C136.622 17.6925 136.212 18.1139 136.212 18.9566V24.5082C136.212 25.3509 136.622 25.7722 137.442 25.7722ZM139.184 27.2242H137.202C136.36 27.2242 135.705 26.9908 135.238 26.5238C134.783 26.0569 134.555 25.4078 134.555 24.5765V18.8883C134.555 18.0455 134.783 17.3964 135.238 16.9409C135.705 16.474 136.36 16.2406 137.202 16.2406H139.184C140.027 16.2406 140.681 16.474 141.148 16.9409C141.615 17.3964 141.849 18.0455 141.849 18.8883V24.5765C141.849 25.4078 141.615 26.0569 141.148 26.5238C140.681 26.9908 140.027 27.2242 139.184 27.2242Z" fill="#FA6821"/>
<path d="M62.3583 17.8218L56.1017 15.0361C55.563 14.7963 54.9319 15.0386 54.6921 15.5772L41.0234 46.2776C40.7836 46.8163 41.0258 47.4474 41.5645 47.6872L47.8211 50.4728C48.3598 50.7127 48.9908 50.4704 49.2307 49.9318L62.8994 19.2313C63.1392 18.6927 62.897 18.0616 62.3583 17.8218Z" fill="#20257F"/>
<path d="M45.9075 14.9466H40.5694C39.0953 14.9466 37.9004 16.1416 37.9004 17.6157V22.9537C37.9004 24.4278 39.0953 25.6228 40.5694 25.6228H45.9075C47.3815 25.6228 48.5765 24.4278 48.5765 22.9537V17.6157C48.5765 16.1416 47.3815 14.9466 45.9075 14.9466Z" fill="#F92D17"/>
</svg>
