<svg width="28" height="28" viewBox="0 0 28 28" fill="none" xmlns="http://www.w3.org/2000/svg">
<path d="M12.999 23C13.6151 23 14.2295 22.9373 14.8249 22.8135C14.861 22.8065 14.8953 22.7923 14.9259 22.7719C14.9564 22.7515 14.9826 22.7253 15.0029 22.6947C15.0232 22.6641 15.0373 22.6298 15.0443 22.5937C15.0512 22.5576 15.0509 22.5206 15.0435 22.4846C15.036 22.4487 15.0215 22.4145 15.0007 22.3843C14.9799 22.3539 14.9534 22.3281 14.9225 22.3081C14.8917 22.2882 14.8572 22.2745 14.8211 22.268C14.785 22.2615 14.7479 22.2622 14.712 22.2701C14.1537 22.3861 13.5771 22.445 12.999 22.445C8.34275 22.445 4.55498 18.6568 4.55498 14C4.55498 9.34319 8.34275 5.55504 12.999 5.55504C17.6554 5.55504 21.4432 9.34319 21.4432 14C21.4432 14.8048 21.3294 15.5949 21.108 16.3575L20.1065 14.878C20.0865 14.8467 20.0606 14.8198 20.0301 14.7986C19.9995 14.7775 19.9651 14.7628 19.9287 14.7552C19.8925 14.7476 19.855 14.7475 19.8186 14.7546C19.7822 14.7618 19.7475 14.7762 19.7168 14.797C19.6861 14.8178 19.6598 14.8445 19.6396 14.8757C19.6194 14.9068 19.6056 14.9417 19.5991 14.9782C19.5926 15.0148 19.5934 15.0522 19.6017 15.0884C19.6099 15.1246 19.6253 15.1587 19.6469 15.1889L20.967 17.1396C20.9728 17.1482 20.9819 17.1534 20.9887 17.1612C21.0006 17.1751 21.0128 17.1876 21.0275 17.1993C21.0422 17.2109 21.058 17.2198 21.0746 17.2281C21.0843 17.2331 21.0913 17.2409 21.1018 17.2447C21.1091 17.2475 21.1163 17.2461 21.1235 17.2481C21.1309 17.25 21.1368 17.255 21.1443 17.2564C21.1617 17.2598 21.1793 17.2614 21.197 17.2614C21.1992 17.2614 21.2018 17.2606 21.2043 17.2606C21.2131 17.2603 21.2217 17.2578 21.2306 17.2564C21.2647 17.2523 21.2977 17.2418 21.328 17.2253C21.336 17.2212 21.3446 17.2189 21.3524 17.214L23.3026 15.8935C23.3328 15.8731 23.3587 15.8469 23.3787 15.8164C23.3987 15.786 23.4126 15.7519 23.4195 15.7161C23.4263 15.6803 23.4261 15.6435 23.4188 15.6078C23.4115 15.5721 23.3971 15.5382 23.3767 15.508C23.3563 15.4778 23.3301 15.452 23.2997 15.4319C23.2693 15.4119 23.2351 15.398 23.1993 15.3911C23.1635 15.3843 23.1267 15.3845 23.091 15.3919C23.0553 15.3992 23.0214 15.4135 22.9913 15.434L21.6987 16.309C21.8974 15.5597 21.9984 14.7859 21.9984 14C21.9984 9.03736 17.9612 5 12.9994 5C8.03667 5 4 9.03736 4 14C4 18.9626 8.03696 23 12.999 23Z" fill="black"/>
</svg>
