<svg width="24" height="23" viewBox="0 0 24 23" fill="none" xmlns="http://www.w3.org/2000/svg">
<path d="M11.1188 22.2377C11.88 22.2377 12.6391 22.1602 13.3748 22.0073C13.4194 21.9986 13.4617 21.9811 13.4995 21.9559C13.5372 21.9307 13.5696 21.8983 13.5947 21.8605C13.6198 21.8227 13.6372 21.7803 13.6458 21.7358C13.6544 21.6912 13.654 21.6454 13.6448 21.601C13.6356 21.5566 13.6176 21.5144 13.592 21.477C13.5663 21.4395 13.5335 21.4076 13.4954 21.3829C13.4573 21.3583 13.4147 21.3414 13.3701 21.3334C13.3254 21.3253 13.2796 21.3262 13.2353 21.336C12.5455 21.4793 11.833 21.552 11.1188 21.552C5.3657 21.552 0.685713 16.872 0.685713 11.1188C0.685713 5.3657 5.3657 0.685713 11.1188 0.685713C16.872 0.685713 21.552 5.3657 21.552 11.1188C21.552 12.1131 21.4114 13.0892 21.1378 14.0314L19.9004 12.2036C19.8758 12.1649 19.8437 12.1316 19.806 12.1055C19.7683 12.0794 19.7257 12.0612 19.6808 12.0518C19.636 12.0425 19.5897 12.0423 19.5447 12.0511C19.4997 12.06 19.4569 12.0778 19.419 12.1035C19.381 12.1292 19.3485 12.1622 19.3236 12.2007C19.2986 12.2391 19.2816 12.2822 19.2735 12.3273C19.2655 12.3725 19.2665 12.4188 19.2767 12.4635C19.2869 12.5082 19.3059 12.5504 19.3326 12.5876L20.9636 14.9976C20.9708 15.0082 20.9821 15.0147 20.9904 15.0243C21.0051 15.0415 21.0202 15.0569 21.0384 15.0713C21.0565 15.0857 21.0761 15.0967 21.0966 15.1069C21.1086 15.1131 21.1172 15.1227 21.1302 15.1275C21.1392 15.1309 21.1481 15.1292 21.157 15.1316C21.1662 15.134 21.1734 15.1402 21.1827 15.1419C21.2042 15.1461 21.226 15.1481 21.2478 15.1481C21.2506 15.1481 21.2537 15.1471 21.2568 15.1471C21.2677 15.1467 21.2784 15.1436 21.2893 15.1419C21.3315 15.1368 21.3723 15.1238 21.4097 15.1035C21.4196 15.0984 21.4302 15.0956 21.4398 15.0895L23.8494 13.4581C23.8867 13.4329 23.9187 13.4005 23.9434 13.3629C23.9682 13.3253 23.9853 13.2832 23.9938 13.239C24.0023 13.1948 24.002 13.1493 23.993 13.1052C23.9839 13.0611 23.9662 13.0192 23.941 12.9819C23.9157 12.9446 23.8834 12.9127 23.8458 12.8879C23.8082 12.8631 23.766 12.846 23.7218 12.8375C23.6776 12.829 23.6321 12.8293 23.588 12.8384C23.5439 12.8474 23.502 12.8651 23.4648 12.8904L21.8677 13.9714C22.1132 13.0457 22.238 12.0898 22.238 11.1188C22.238 4.98787 17.2498 0 11.1192 0C4.98753 0 0 4.98787 0 11.1188C0 17.2498 4.98788 22.2377 11.1188 22.2377Z" fill="black"/>
</svg>
