<svg width="25" height="19" viewBox="0 0 25 19" fill="none" xmlns="http://www.w3.org/2000/svg">
<path d="M0.0262038 11.6829V11.1951C0.0262038 10.8537 0.20963 10.6829 0.576482 10.6829H2.8038C3.17065 10.6829 3.35408 10.8537 3.35408 11.1951V11.3902C3.35408 12.0081 3.4851 12.4309 3.74713 12.6585C4.00917 12.8862 4.48957 13 5.18834 13H6.41991C7.10121 13 7.57288 12.878 7.83492 12.6341C8.11442 12.3902 8.25418 11.935 8.25418 11.2683V10.9756C8.25418 10.5041 8.04455 10.1463 7.62529 9.90244C7.2235 9.64228 6.71689 9.4878 6.10547 9.43902C5.49405 9.39024 4.83022 9.30081 4.11399 9.17073C3.41522 9.02439 2.76013 8.84553 2.14871 8.63415C1.53729 8.4065 1.02195 7.97561 0.602686 7.34146C0.200895 6.69106 0 5.86179 0 4.85366V4C0 2.73171 0.384322 1.74797 1.15296 1.04878C1.92161 0.349593 2.98723 0 4.34982 0H6.97019C8.35026 0 9.42461 0.349593 10.1933 1.04878C10.9619 1.74797 11.3462 2.73171 11.3462 4V4.46341C11.3462 4.80488 11.1628 4.97561 10.7959 4.97561H8.56862C8.20177 4.97561 8.01834 4.80488 8.01834 4.46341V4.31707C8.01834 3.68293 7.88732 3.25203 7.62529 3.02439C7.36325 2.79675 6.88285 2.68293 6.18408 2.68293H5.16214C4.4459 2.68293 3.95676 2.81301 3.69473 3.07317C3.45016 3.31707 3.32787 3.80488 3.32787 4.53659V5C3.32787 5.76423 4.04411 6.20325 5.47658 6.31707C6.96146 6.43089 8.28038 6.70732 9.43334 7.14634C10.0448 7.39024 10.5514 7.82927 10.9532 8.46341C11.3724 9.0813 11.582 9.87805 11.582 10.8537V11.6829C11.582 12.9512 11.1977 13.935 10.4291 14.6341C9.66044 15.3333 8.59482 15.6829 7.23223 15.6829H4.37602C3.01343 15.6829 1.94781 15.3333 1.17917 14.6341C0.410525 13.935 0.0262038 12.9512 0.0262038 11.6829Z" fill="#1E53E5"/>
<path d="M21.6721 11.122V6.19512C21.6721 6.01626 21.5673 5.92683 21.3577 5.92683H18.8945C18.3355 5.92683 17.9425 6.04065 17.7154 6.26829C17.4883 6.47967 17.3747 6.84553 17.3747 7.36585V11.561C17.3747 12.0813 17.4883 12.4553 17.7154 12.6829C17.9425 12.8943 18.3355 13 18.8945 13H19.8379C21.0607 13 21.6721 12.374 21.6721 11.122ZM18.9731 15.6829H18.3705C16.9904 15.6829 15.9248 15.3415 15.1736 14.6585C14.4224 13.9756 14.0468 12.9919 14.0468 11.7073V7.21951C14.0468 5.93496 14.4224 4.95122 15.1736 4.26829C15.9248 3.58537 16.9904 3.2439 18.3705 3.2439H24.4235C24.8078 3.2439 25 3.41463 25 3.7561V18.5122C25 18.8374 24.8078 19 24.4235 19H22.2224C21.8556 19 21.6721 18.8374 21.6721 18.5122V14.3415H21.5673C21.148 15.2358 20.2833 15.6829 18.9731 15.6829Z" fill="#1E53E5"/>
</svg>
