<svg width="13" height="10" viewBox="0 0 13 10" fill="none" xmlns="http://www.w3.org/2000/svg">
<path d="M0.587989 6.032V5.792C0.587989 5.624 0.671989 5.54 0.839989 5.54H1.85999C2.02799 5.54 2.11199 5.624 2.11199 5.792V5.888C2.11199 6.192 2.17199 6.4 2.29199 6.512C2.41199 6.624 2.63199 6.68 2.95199 6.68H3.51599C3.82799 6.68 4.04399 6.62 4.16399 6.5C4.29199 6.38 4.35599 6.156 4.35599 5.828V5.684C4.35599 5.452 4.25999 5.276 4.06799 5.156C3.88399 5.028 3.65199 4.952 3.37199 4.928C3.09199 4.904 2.78799 4.86 2.45999 4.796C2.13999 4.724 1.83999 4.636 1.55999 4.532C1.27999 4.42 1.04399 4.208 0.851989 3.896C0.667989 3.576 0.575989 3.168 0.575989 2.672V2.252C0.575989 1.628 0.751989 1.144 1.10399 0.799996C1.45599 0.455997 1.94399 0.283997 2.56799 0.283997H3.76799C4.39999 0.283997 4.89199 0.455997 5.24399 0.799996C5.59599 1.144 5.77199 1.628 5.77199 2.252V2.48C5.77199 2.648 5.68799 2.732 5.51999 2.732H4.49999C4.33199 2.732 4.24799 2.648 4.24799 2.48V2.408C4.24799 2.096 4.18799 1.884 4.06799 1.772C3.94799 1.66 3.72799 1.604 3.40799 1.604H2.93999C2.61199 1.604 2.38799 1.668 2.26799 1.796C2.15599 1.916 2.09999 2.156 2.09999 2.516V2.744C2.09999 3.12 2.42799 3.336 3.08399 3.392C3.76399 3.448 4.36799 3.584 4.89599 3.8C5.17599 3.92 5.40799 4.136 5.59199 4.448C5.78399 4.752 5.87999 5.144 5.87999 5.624V6.032C5.87999 6.656 5.70399 7.14 5.35199 7.484C4.99999 7.828 4.51199 8 3.88799 8H2.57999C1.95599 8 1.46799 7.828 1.11599 7.484C0.763989 7.14 0.587989 6.656 0.587989 6.032Z" fill="black"/>
<path d="M10.5007 5.756V3.332C10.5007 3.244 10.4527 3.2 10.3567 3.2H9.22874C8.97274 3.2 8.79274 3.256 8.68874 3.368C8.58474 3.472 8.53274 3.652 8.53274 3.908V5.972C8.53274 6.228 8.58474 6.412 8.68874 6.524C8.79274 6.628 8.97274 6.68 9.22874 6.68H9.66074C10.2207 6.68 10.5007 6.372 10.5007 5.756ZM9.26474 8H8.98874C8.35674 8 7.86874 7.832 7.52474 7.496C7.18074 7.16 7.00874 6.676 7.00874 6.044V3.836C7.00874 3.204 7.18074 2.72 7.52474 2.384C7.86874 2.048 8.35674 1.88 8.98874 1.88H11.7607C11.9367 1.88 12.0247 1.964 12.0247 2.132V9.392C12.0247 9.552 11.9367 9.632 11.7607 9.632H10.7527C10.5847 9.632 10.5007 9.552 10.5007 9.392V7.34H10.4527C10.2607 7.78 9.86474 8 9.26474 8Z" fill="black"/>
</svg>
