<svg xmlns="http://www.w3.org/2000/svg" width="351.416" height="46.62" viewBox="0 0 351.416 46.62">
  <g id="tvlogo" transform="translate(-1956 -1993.2)">
    <g id="tvlogo-2" data-name="tvlogo" transform="translate(1956 1995.4)">
      <path id="Path_1048" data-name="Path 1048" d="M26.444,38H13.222V17.222H0V4H26.444Zm26.444,0H37.778L51.944,4H67.056Z" transform="translate(0 -4)"/>
      <circle id="Ellipse_76" data-name="Ellipse 76" cx="4" cy="4" r="4" transform="translate(34.36)"/>
    </g>
    <path id="tvtxtlogo" d="M9.066,39.114h7V11.678h9.161V5.06H0v6.62H9.066Zm16.172,0h6.571V27.652c0-3.982,2.062-6.38,5.183-6.38a8.788,8.788,0,0,1,2.972.528V15.132a7.35,7.35,0,0,0-2.205-.288,6.39,6.39,0,0,0-5.949,4.123V15.134H25.238V39.116Zm27.338.528a8.633,8.633,0,0,0,6.908-3.216v2.686h6.571V15.134H59.484V17.82a8.638,8.638,0,0,0-6.908-3.214C46.2,14.606,41.3,20.362,41.3,27.124s4.893,12.52,11.273,12.52Zm1.392-6c-3.647,0-6.045-2.733-6.045-6.522s2.4-6.526,6.045-6.526,6.043,2.735,6.043,6.526S57.613,33.646,53.968,33.646Zm27.731,6a8.626,8.626,0,0,0,6.906-3.216v2.686h6.571V3.143H88.606V17.822A8.626,8.626,0,0,0,81.7,14.606c-6.38,0-11.273,5.756-11.273,12.518S75.32,39.644,81.7,39.644Zm1.39-6c-3.645,0-6.043-2.733-6.043-6.522s2.4-6.526,6.043-6.526,6.043,2.735,6.043,6.526S86.735,33.646,83.09,33.646Zm21.257-22.17A4.173,4.173,0,1,0,100.174,7.3a4.186,4.186,0,0,0,4.173,4.173Zm-3.261,27.639h6.571V15.406h-6.571V39.112Zm12.4,0h6.571v-11.7c0-4.606,2.255-6.811,5.325-6.811,2.733,0,4.222,2.111,4.222,5.563V39.114h6.571V25.06c0-6.234-3.454-10.456-9.257-10.456a8.074,8.074,0,0,0-6.86,3.261V15.132h-6.571V39.114ZM152.9,32.732a5.991,5.991,0,0,1-6.091-6.14,6.091,6.091,0,1,1,12.181,0A5.991,5.991,0,0,1,152.9,32.732Zm-.768,16.74c7.339,0,12.9-3.741,12.9-12.376V14.986h-6.571v2.686a8.43,8.43,0,0,0-6.955-3.212c-6.284,0-11.321,5.372-11.321,12.134,0,6.715,5.037,12.087,11.321,12.087a8.668,8.668,0,0,0,6.955-3.164v1.63a6.181,6.181,0,0,1-6.427,6.571,10.549,10.549,0,0,1-7.483-2.973l-3.6,4.891c2.733,2.639,7,3.838,11.175,3.838Zm26.8-10.358h6.185l14.1-34.055h-7.674l-9.5,23.646L172.4,5.06h-7.53l14.054,34.055ZM205.243,11.2a4.173,4.173,0,1,0-4.175-4.173A4.186,4.186,0,0,0,205.243,11.2ZM201.98,39.114h6.571V15.132H201.98Zm23.578.528c5.035,0,8.873-2.111,11.128-5.372l-4.893-3.645a7.1,7.1,0,0,1-6.187,3.021c-3.164,0-5.994-1.774-6.378-4.988h17.937a13.306,13.306,0,0,0,.1-2.255c0-7.818-5.516-11.8-11.8-11.8a12.255,12.255,0,0,0-12.614,12.518c0,7.579,5.565,12.52,12.711,12.52ZM219.465,24.2c.624-2.926,3.357-4.175,5.805-4.175a5.2,5.2,0,0,1,5.419,4.175Zm42.413,14.916H268.4l7.914-23.982h-7.052l-4.507,15.348-4.893-15.348h-5.035l-4.844,15.348-4.557-15.348h-7l7.963,23.982h6.522l4.462-13.623,4.507,13.623Z" transform="translate(2031.1 1990.346)"/>
  </g>
</svg>
