<?xml version="1.0" encoding="utf-8"?>
<!-- Generator: Adobe Illustrator 24.3.0, SVG Export Plug-In . SVG Version: 6.00 Build 0)  -->
<svg version="1.1" id="Layer_1" xmlns="http://www.w3.org/2000/svg" xmlns:xlink="http://www.w3.org/1999/xlink" x="0px" y="0px"
	 viewBox="0 0 200 108" style="enable-background:new 0 0 200 108;" xml:space="preserve">
<style type="text/css">
	<!-- .st0{fill:#1F3465;}
	.st1{fill:#1E3565;}
	.st2{enable-background:new    ;}
	.st3{fill:#1E3465;}
	.st4{display:none;enable-background:new    ;}
	.st5{display:inline;fill:#1E3465;} -->

	.st0{fill:rgb(204, 204, 204);}
	.st1{fill:rgb(204, 204, 204);}
	.st2{enable-background:new    ;}
	.st3{fill:rgb(204, 204, 204);}
	.st4{display:none;enable-background:new    ;}
	.st5{display:inline;fill:rgb(204, 204, 204);}
</style>
<g>
	<path class="st0" d="M64.1,52.9c0.3,7.3,3.9,10.6,10.2,10.6c4.6,0,8.3-2.8,9-5.4h10.1c-3.2,9.8-10.1,14-19.5,14
		c-13.1,0-21.3-9-21.3-21.9c0-12.5,8.6-22,21.3-22C88.2,28.1,95,40,94.2,52.9H64.1L64.1,52.9z M82.7,45.6c-1.1-5.8-3.6-8.9-9.1-8.9
		c-7.3,0-9.4,5.6-9.5,8.9H82.7z"/>
	<polygon class="st0" points="50.3,35.5 12.9,23.5 12.9,34 38.8,42.3 12.9,50.7 12.9,51.6 12.9,61.1 12.9,61.2 39.6,52.6 50.3,49.2 
		50.3,49.2 50.3,35.6 	"/>
	<rect x="12.9" y="61.2" class="st0" width="37.3" height="9.7"/>
	<path class="st0" d="M121.4,28.1c-5.2,0-10.3,1.9-13.1,6.2h-0.2v-21l0,0l0,0L96.7,17v53.9h10.9v-5.3h0.2c2.5,4.6,7.6,6.5,13.7,6.5
		c8.3,0,17.3-6.7,17.3-22C138.7,34.8,129.7,28.1,121.4,28.1 M117.5,63.4c-6.8,0-9.8-6.4-9.8-13.3c0-7,3-13.4,9.8-13.4
		s9.8,6.4,9.8,13.4C127.2,57.1,124.3,63.4,117.5,63.4"/>
	<path class="st0" d="M168.8,51.1c0,8.5-2.7,11.9-8.9,11.9c-5.3,0-7.3-3.4-7.3-10.2V29.2l0,0l0,0l-11.5,3.7v22
		c0,10.3,3.1,17.2,15.2,17.2c4.8,0,9.8-2.3,12.7-6.9h0.2V71h10.9V29.2l-11.5,3.7L168.8,51.1L168.8,51.1z"/>
	<path class="st1" d="M13.1,82.8h5.4c1.5,0,2.6,0.4,3.4,1.2c0.7,0.7,1,1.6,1,2.7l0,0c0,1.9-1,3.1-2.5,3.6l2.9,4.2h-3l-2.5-3.8l0,0
		h-2v3.8h-2.6L13.1,82.8L13.1,82.8z M18.3,88.5c1.3,0,2-0.7,2-1.7l0,0c0-1.1-0.8-1.7-2-1.7h-2.6v3.4C15.7,88.5,18.3,88.5,18.3,88.5z
		"/>
	<polygon class="st1" points="25.2,82.8 34.1,82.8 34.1,85.1 27.8,85.1 27.8,87.4 33.3,87.4 33.3,89.7 27.8,89.7 27.8,92.2 
		34.2,92.2 34.2,94.5 25.2,94.5 	"/>
	<polygon class="st1" points="36.5,82.8 39,82.8 39,92.1 44.9,92.1 44.9,94.5 36.5,94.5 	"/>
	<rect x="46.9" y="82.8" class="st1" width="2.6" height="11.7"/>
	<path class="st1" d="M56.5,82.7h2.4l5,11.8h-2.7l-1.1-2.6h-5L54,94.5h-2.6L56.5,82.7z M59.2,89.6l-1.6-3.8L56,89.6H59.2z"/>
	<path class="st1" d="M65.7,82.8h5.4c1.3,0,2.4,0.4,3.1,1c0.5,0.5,0.8,1.2,0.8,2l0,0c0,1.3-0.7,2.1-1.5,2.5c1.4,0.5,2.2,1.3,2.2,2.9
		l0,0c0,2.1-1.7,3.2-4.4,3.2h-5.6V82.8L65.7,82.8z M70.6,87.5c1.1,0,1.9-0.4,1.9-1.2l0,0c0-0.8-0.6-1.2-1.7-1.2h-2.5v2.5L70.6,87.5
		L70.6,87.5z M71.3,92.2c1.1,0,1.8-0.4,1.8-1.3l0,0c0-0.8-0.6-1.3-1.9-1.3h-3v2.6L71.3,92.2L71.3,92.2z"/>
	<polygon class="st1" points="77.8,82.8 80.4,82.8 80.4,92.1 86.2,92.1 86.2,94.5 77.8,94.5 	"/>
	<polygon class="st1" points="88.1,82.8 97,82.8 97,85.1 90.7,85.1 90.7,87.4 96.2,87.4 96.2,89.7 90.7,89.7 90.7,92.2 97.1,92.2 
		97.1,94.5 88.1,94.5 	"/>
	<rect x="99" y="91.8" class="st0" width="2.7" height="2.7"/>
	<path class="st1" d="M113.2,82.7h2.4l5,11.8h-2.7l-1.1-2.6h-5l-1.1,2.6h-2.6L113.2,82.7z M115.9,89.6l-1.6-3.8l-1.6,3.8H115.9z"/>
	<polygon class="st1" points="122.4,82.8 125,82.8 125,92.1 130.8,92.1 130.8,94.5 122.4,94.5 	"/>
	<polygon class="st1" points="130.2,82.8 133,82.8 135.4,90.7 138,82.7 140.2,82.7 142.9,90.7 145.3,82.8 148,82.8 144,94.6 
		141.7,94.6 139.1,86.9 136.4,94.6 134.2,94.6 	"/>
	<path class="st1" d="M152.4,82.7h2.4l5,11.8h-2.7l-1.1-2.6h-5l-1.1,2.6h-2.6L152.4,82.7z M155.1,89.6l-1.6-3.8l-1.6,3.8H155.1z"/>
	<polygon class="st1" points="163.1,89.9 158.6,82.8 161.6,82.8 164.4,87.5 167.2,82.8 170.2,82.8 165.7,89.8 165.7,94.5 
		163.1,94.5 	"/>
	<path class="st1" d="M170.4,92.8l1.5-1.8c1.1,0.9,2.2,1.4,3.5,1.4c1.1,0,1.7-0.4,1.7-1.1l0,0c0-0.7-0.4-1-2.4-1.5
		c-2.4-0.6-3.9-1.3-3.9-3.6l0,0c0-2.1,1.7-3.5,4.1-3.5c1.7,0,3.2,0.5,4.4,1.5L178,86c-1-0.7-2.1-1.2-3-1.2s-1.5,0.5-1.5,1l0,0
		c0,0.8,0.5,1,2.5,1.5c2.4,0.6,3.7,1.5,3.7,3.5l0,0c0,2.3-1.8,3.6-4.3,3.6C173.6,94.7,171.8,94,170.4,92.8"/>
	<rect x="181.5" y="91.8" class="st0" width="2.7" height="2.7"/>
</g>
<g>
	<g class="st2">
		<path class="st3" d="M187.9,22.9c3.1,0,5.6,2.5,5.6,5.6s-2.5,5.6-5.6,5.6s-5.6-2.5-5.6-5.6S184.7,22.9,187.9,22.9 M187.9,21.2
			c-4.1,0-7.4,3.3-7.4,7.4s3.3,7.4,7.4,7.4c4.1,0,7.4-3.3,7.4-7.4S191.9,21.2,187.9,21.2L187.9,21.2z"/>
	</g>
	<g class="st4">
		<path class="st5" d="M184.1,27.5v-0.8h3.1v0.8h-1.1v3.1h-0.9v-3.1H184.1z"/>
		<path class="st5" d="M187.7,26.7h1.1l0.9,2.4l0,0l0.9-2.4h1.1v3.9h-0.9v-2.4l0,0l-0.9,2.4h-0.6l-0.9-2.4l0,0v2.4h-0.7V26.7z"/>
	</g>
</g>
<g>
	<path class="st0" d="M187.3,26.7v0.7h-1.2v3.2h-0.8v-3.2h-1.2v-0.7H187.3z"/>
	<path class="st0" d="M190.5,26.7h1.2v3.9h-0.8v-2.6c0-0.1,0-0.2,0-0.3c0-0.1,0-0.2,0-0.3l-0.8,3.3h-0.8l-0.8-3.3c0,0.1,0,0.2,0,0.3
		c0,0.1,0,0.2,0,0.3v2.6h-0.8v-3.9h1.2l0.7,3.1L190.5,26.7z"/>
</g>
</svg>
